PathFileType	4	(X/Y/Z)	2014001\dynamic\2014001_C1_03.trc
DataRate	CameraRate	NumFrames	NumMarkers	Units	OrigDataRate	OrigDataStartFrame	OrigNumFrames
100.000000	100.000000	4	52	mm	100.000000	367	490
Frame#	Time	L_IAS			L_IPS			R_IPS			R_IAS			L_FTC			L_FLE			L_FME			L_FAX			L_TTC			L_FAL			L_TAM			L_FCC			L_FM1			L_FM2			L_FM5			R_FTC			R_FLE			R_FME			R_FAX			R_TTC			R_FAL			R_TAM			R_FCC			R_FM1			R_FM2			R_FM5			CV7			TV10			SXS			SJN			L_SIA			L_SRS			L_SAA			L_SAE			L_HLE			L_HME			L_UOA			L_RSP			L_UHE			L_HM2			L_HM5			R_SIA			R_SRS			R_SAA			R_SAE			R_HLE			R_HME			R_UOA			R_RSP			R_UHE			R_HM2			R_HM5			
		X1	Y1	Z1	X2	Y2	Z2	X3	Y3	Z3	X4	Y4	Z4	X5	Y5	Z5	X6	Y6	Z6	X7	Y7	Z7	X8	Y8	Z8	X9	Y9	Z9	X10	Y10	Z10	X11	Y11	Z11	X12	Y12	Z12	X13	Y13	Z13	X14	Y14	Z14	X15	Y15	Z15	X16	Y16	Z16	X17	Y17	Z17	X18	Y18	Z18	X19	Y19	Z19	X20	Y20	Z20	X21	Y21	Z21	X22	Y22	Z22	X23	Y23	Z23	X24	Y24	Z24	X25	Y25	Z25	X26	Y26	Z26	X27	Y27	Z27	X28	Y28	Z28	X29	Y29	Z29	X30	Y30	Z30	X31	Y31	Z31	X32	Y32	Z32	X33	Y33	Z33	X34	Y34	Z34	X35	Y35	Z35	X36	Y36	Z36	X37	Y37	Z37	X38	Y38	Z38	X39	Y39	Z39	X40	Y40	Z40	X41	Y41	Z41	X42	Y42	Z42	X43	Y43	Z43	X44	Y44	Z44	X45	Y45	Z45	X46	Y46	Z46	X47	Y47	Z47	X48	Y48	Z48	X49	Y49	Z49	X50	Y50	Z50	X51	Y51	Z51	X52	Y52	Z52	

368	3.67	392.8085632324221	882.029663085938	1138.424438476563	320.4954528808595	917.4793090820317	957.1449584960942	230.6431884765626	913.976196289063	951.1906738281255	149.9218750000001	876.6867675781255	1127.784912109375	450.8211059570315	797.2382812500005	1068.11572265625	404.7934265136721	441.987243652344	1106.86962890625	288.4431762695314	445.005554199219	1122.307983398438	406.233581542969	377.3108825683595	1095.063842773438	354.4866333007814	369.7723083496095	1156.504516601563	347.2918090820314	60.68426132202151	1111.115844726563	259.784637451172	76.90626525878909	1133.451049804688	296.8386840820314	20.24139022827149	1070.80029296875	281.0153808593751	26.6403217315674	1251.051513671875	342.5663146972657	39.44212722778322	1256.19384765625	385.1379089355471	25.80725288391115	1200.466796875	98.05451202392584	788.2008666992192	1020.639099121094	112.291488647461	449.0504150390627	959.5653686523442	228.0131835937501	420.3775329589846	984.013549804688	109.2641525268555	400.9615173339846	909.6760253906255	148.5133056640626	358.3302612304689	965.325073242188	151.0936584472657	164.9375762939454	700.138854980469	230.3628692626954	152.3754577636719	745.628112792969	211.643280029297	161.6827087402344	650.3479614257815	234.5106506347657	34.73163223266603	758.932556152344	171.2100677490235	38.85496902465822	770.658813476563	126.4753341674805	51.10932159423831	725.3399658203127	268.109344482422	1376.387573242188	950.218627929688	272.6716613769532	1134.41357421875	904.8678588867192	286.6163940429689	1158.968383789063	1133.35302734375	280.7712402343751	1316.08203125	1077.686889648438	363.7112731933595	1174.53466796875	891.9113769531255	357.0154113769532	1309.123779296875	902.6264038085942	469.0394592285159	1309.146240234375	972.9756469726567	456.5423278808596	1322.873779296875	1013.309631347657	532.4572753906252	1036.85302734375	990.8303222656255	455.6216735839846	1002.676696777344	974.994750976563	504.285095214844	1000.893310546875	962.4810180664067	504.7179260253909	819.8954467773442	1113.406494140625	567.341247558594	810.7382812500005	1062.49072265625	516.8421630859377	743.171081542969	1153.979125976563	569.6743774414065	731.9113769531252	1066.285034179688	156.295639038086	1177.3466796875	901.1398925781255	178.5513610839844	1304.3798828125	916.9592895507817	81.41114044189456	1303.40576171875	1003.350646972657	96.32778167724615	1310.842163085938	1051.47802734375	25.00956916809083	1004.832824707032	1034.423461914063	99.38701629638678	986.9811401367192	1003.736999511719	53.35588073730472	978.882446289063	1004.318969726563	65.562858581543	810.1011352539067	1153.194091796875	0.2438251823186875	800.9822387695317	1104.341552734375	50.76070022583011	724.419616699219	1193.311279296875	0.6589959859848025	721.7427978515627	1103.037841796875	
369	3.68	394.0800781250002	882.0664672851567	1142.090087890625	321.634002685547	917.8692016601567	960.8883666992192	231.7831420898439	914.383911132813	955.0833129882817	151.1254577636719	877.1779174804692	1131.535278320313	451.7857971191409	797.2510375976567	1071.4755859375	405.4470214843752	441.9444580078127	1108.5166015625	289.0140380859376	445.3995361328127	1124.720947265625	406.7463684082034	377.3064880371095	1096.386108398438	355.1666259765626	369.5174560546876	1157.829345703125	347.2787170410157	60.66200637817386	1111.112670898438	259.8552856445314	76.93906402587893	1133.579223632813	296.808319091797	20.28246498107911	1070.796142578125	280.985321044922	26.64970207214357	1251.053955078125	342.6028137207032	39.32773971557619	1256.251098632813	385.2191467285159	25.72733688354494	1200.450317382813	99.09123992919928	788.4606933593755	1024.689208984375	112.6238327026368	449.0841369628909	965.2588500976567	228.449676513672	420.1675415039065	989.802368164063	109.5515441894532	401.3392333984377	915.2977905273442	148.6849517822266	358.269989013672	970.639282226563	151.458236694336	167.3035278320313	703.7886352539065	230.6414184570314	154.0835571289063	749.3179321289065	212.2570648193361	164.8537597656251	654.1897583007815	234.6231994628907	36.01473617553712	760.251403808594	171.1577301025391	39.6144371032715	771.7922363281255	126.7660217285157	53.07010269165042	726.890319824219	269.3209838867189	1376.837768554688	954.379760742188	274.0455017089845	1134.928466796875	908.8335571289067	287.763153076172	1159.341064453125	1137.450317382813	281.8385620117189	1316.50830078125	1081.851806640625	365.3936767578126	1175.199340820313	896.1931152343755	358.453338623047	1309.665283203125	906.9812622070317	470.3666076660159	1309.80908203125	977.6596069335942	457.6392211914065	1323.5224609375	1017.943298339844	534.171813964844	1037.644775390625	996.6981811523442	457.496520996094	1003.328308105469	980.3043823242192	506.288513183594	1001.607299804688	968.1987915039067	506.1314697265627	820.7156372070317	1119.495727539063	569.0786132812502	811.6744995117192	1068.85595703125	518.0933227539065	744.0346679687502	1160.031616210938	571.6560058593752	732.9131469726565	1072.806884765625	157.5945434570313	1177.7744140625	905.1896972656255	179.8347930908204	1304.810302734375	921.0275268554692	82.59841156005862	1303.734008789063	1007.3369140625	97.52888488769537	1311.178833007813	1055.448608398438	26.28462600708009	1005.052551269532	1039.347045898438	100.687484741211	987.080200195313	1008.823791503907	54.67608642578128	978.8037109375005	1009.464599609375	67.47468566894534	811.7337036132817	1160.378051757813	2.180527210235597	801.7526245117192	1111.412353515625	52.88510513305667	726.4210205078127	1201.280029296875	2.936018705368043	722.5405273437502	1110.9716796875	
370	3.69	395.3267211914065	882.0844726562505	1145.623901367188	322.694793701172	918.2299804687505	964.4941406250005	232.8512115478517	914.7614135742192	958.9038085937505	152.2930450439454	877.666381835938	1135.205688476563	452.6858215332034	797.2393188476567	1074.720825195313	406.0706481933596	441.8938293457034	1110.073608398438	289.6160888671876	445.6336364746096	1126.93408203125	407.2325439453127	377.2984619140626	1097.629028320313	355.8263549804689	369.2594299316407	1159.07861328125	347.2698669433595	60.63591384887698	1111.10595703125	259.924041748047	76.99317169189456	1133.724975585938	296.7842712402345	20.3215618133545	1070.7890625	280.9677124023439	26.67868041992189	1251.064086914063	342.6542053222657	39.21850967407228	1256.298095703125	385.3080749511721	25.63925170898439	1200.431762695313	100.0997543334962	788.682006835938	1028.70751953125	112.9845428466797	449.0885009765627	970.9755859375005	228.9336395263673	419.9717102050784	995.581909179688	109.8525543212891	401.6766052246096	920.9650268554692	148.9233398437501	358.1929626464845	975.9665527343755	151.8907012939454	169.6375427246094	707.5155029296877	230.9888153076173	155.7759552001954	753.0640869140627	212.9432067871095	167.9956207275391	658.1133422851565	234.7707366943361	37.26551055908205	761.7327270507815	171.1431427001954	40.39962005615236	772.988891601563	127.0974884033204	55.08696746826175	728.5252685546877	270.5195617675782	1377.283569335938	958.463989257813	275.3797912597657	1135.44287109375	912.702514648438	288.8866577148439	1159.695556640625	1141.458374023438	282.885467529297	1316.920776367188	1085.942749023438	367.0656738281251	1175.880004882813	900.362182617188	359.8742675781251	1310.201782226563	911.2601928710942	471.6707153320315	1310.476806640625	982.2715454101567	458.7105712890627	1324.171997070313	1022.503540039063	535.827575683594	1038.419555664063	1002.489868164063	459.2974243164065	1004.0107421875	985.5078125000005	508.2088317871096	1002.314514160157	973.8456420898442	507.5249633789065	821.5419921875005	1125.52978515625	570.7415771484377	812.603149414063	1075.126342773438	519.3076782226565	744.8985595703127	1166.016357421875	573.5530395507815	733.9083251953127	1079.24755859375	158.8694000244141	1178.210083007813	909.145629882813	181.1011047363282	1305.237915039063	925.0224609375005	83.76546478271487	1304.06640625	1011.240051269532	98.71073913574224	1311.518920898438	1059.335205078125	27.5365390777588	1005.27392578125	1044.157104492188	101.9594116210938	987.1894531250005	1013.785339355469	55.96810531616214	978.7241821289067	1014.499206542969	69.43559265136722	813.4237670898442	1167.443725585938	4.153060913085939	802.5681762695317	1118.413208007813	55.09753417968753	728.501647949219	1209.175415039063	5.261006355285646	723.3870849609377	1118.881103515625	
371	3.7	396.5440063476565	882.0855102539067	1149.033813476563	323.679168701172	918.5632324218755	967.9675292968755	233.8465423583986	915.1085815429692	962.6456909179692	153.4250640869141	878.145385742188	1138.804321289063	453.5259094238284	797.208129882813	1077.855590820313	406.6594543457034	441.8341369628909	1111.548950195313	290.2543029785157	445.6738891601565	1128.897827148438	407.6897277832034	377.2850036621095	1098.801635742188	356.4531250000001	369.0034179687501	1160.261596679688	347.2621459960939	60.60494613647464	1111.10302734375	259.9819641113282	77.06422424316409	1133.883056640625	296.7667236328126	20.35516357421876	1070.77978515625	280.9645080566407	26.71838378906251	1251.082275390625	342.7166137695314	39.12043762207033	1256.331665039063	385.3976745605471	25.55117988586427	1200.411743164063	101.0793685913087	788.8690795898442	1032.692138671875	113.3707580566407	449.0686035156252	976.6916503906255	229.454315185547	419.7900695800784	1001.338928222657	110.1669845581055	401.9853820800784	926.6471557617192	149.2194366455079	358.0997619628907	981.2885742187505	152.3846435546876	171.9240112304688	711.3114013671877	231.3899993896486	157.4320831298829	756.8677368164065	213.6975250244142	171.088363647461	662.1185302734377	234.9491424560548	38.46791458129884	763.3688964843752	171.1683959960938	41.19029617309572	774.2369995117192	127.4685211181641	57.13033676147464	730.238220214844	271.7073059082032	1377.721557617188	962.471069335938	276.6706542968751	1135.95068359375	916.480590820313	289.9879455566407	1160.02978515625	1145.380981445313	283.9136657714845	1317.315673828125	1089.960083007813	368.7146301269532	1176.5625	904.4252319335942	361.2747497558595	1310.726318359375	915.4630737304692	472.9505615234377	1311.13720703125	986.806518554688	459.7578125000002	1324.809814453125	1026.986328125	537.4295043945315	1039.164794921875	1008.181396484375	461.0299072265627	1004.708679199219	990.5844726562505	510.0509033203127	1002.998596191407	979.4005737304692	508.8897094726565	822.3798217773442	1131.49853515625	572.3306884765627	813.5191040039067	1081.30322265625	520.4863891601565	745.7749023437502	1171.947631835938	575.3577270507815	734.8884887695315	1085.615844726563	160.1201171875001	1178.646240234375	913.0105590820317	182.3498992919922	1305.658569335938	928.9432983398442	84.91259765625003	1304.397583007813	1015.0595703125	99.87125396728521	1311.858520507813	1063.138305664063	28.76490020751955	1005.492370605469	1048.8447265625	103.2042922973633	987.3046875000005	1018.616455078125	57.23313903808597	978.640502929688	1019.414672851563	71.43975067138675	815.157104492188	1174.368774414063	6.159829139709476	803.4232788085942	1125.323852539063	57.38925933837893	730.6543579101565	1216.97998046875	7.631408214569095	724.2780761718752	1126.743286132813	
